<?xml version="1.0" encoding="UTF-8"?>
<svg width="120" height="120" viewBox="0 0 120 120" xmlns="http://www.w3.org/2000/svg">
  <defs>
    <linearGradient id="metalGradient" x1="0%" y1="0%" x2="100%" y2="100%">
      <stop offset="0%" style="stop-color:#e8e8e8;stop-opacity:1" />
      <stop offset="25%" style="stop-color:#d5d5d5;stop-opacity:1" />
      <stop offset="50%" style="stop-color:#c0c0c0;stop-opacity:1" />
      <stop offset="75%" style="stop-color:#b8b8b8;stop-opacity:1" />
      <stop offset="100%" style="stop-color:#a8a8a8;stop-opacity:1" />
    </linearGradient>
    <linearGradient id="shadowGradient" x1="0%" y1="0%" x2="100%" y2="100%">
      <stop offset="0%" style="stop-color:#9a9a9a;stop-opacity:1" />
      <stop offset="100%" style="stop-color:#7a7a7a;stop-opacity:1" />
    </linearGradient>
  </defs>
  
  <!-- Main H shape with aluminum styling -->
  <g transform="translate(20, 20)">
    <!-- Left vertical bar of H -->
    <rect x="0" y="0" width="15" height="80" fill="url(#metalGradient)" stroke="url(#shadowGradient)" stroke-width="1"/>
    
    <!-- Right vertical bar of H -->
    <rect x="65" y="0" width="15" height="80" fill="url(#metalGradient)" stroke="url(#shadowGradient)" stroke-width="1"/>
    
    <!-- Horizontal bar of H -->
    <rect x="0" y="32.5" width="80" height="15" fill="url(#metalGradient)" stroke="url(#shadowGradient)" stroke-width="1"/>
    
    <!-- Hexagonal aluminum profile element -->
    <g transform="translate(25, 10)">
      <polygon points="15,0 25,5 25,15 15,20 5,15 5,5" 
               fill="url(#metalGradient)" 
               stroke="url(#shadowGradient)" 
               stroke-width="1.5"/>
    </g>
    
    <!-- Aluminum angle profile at bottom -->
    <g transform="translate(30, 50)">
      <path d="M0,0 L20,0 L20,5 L5,5 L5,20 L0,20 Z" 
            fill="url(#metalGradient)" 
            stroke="url(#shadowGradient)" 
            stroke-width="1"/>
    </g>
  </g>
  
  <!-- Subtle shine effect -->
  <rect x="25" y="25" width="3" height="70" fill="rgba(255,255,255,0.3)" opacity="0.6"/>
  <rect x="85" y="25" width="3" height="70" fill="rgba(255,255,255,0.3)" opacity="0.6"/>
</svg>